P2
64 92
255
107 97 88 92 98 98 87 92 83 85 82 85 87 88 83 85 96 89 90 89 99 95 96 93 89 93 96 100 102 102 86 90 88 89 97 88 90 85 84 80 80 80 84 88 88 77 80 77 74 78 79 79 80 80 77 82 87 78 71 69 70 72 73 68 118 101 92 94 99 103 99 94 88 87 92 98 86 94 93 89 99 109 100 95 99 98 95 105 99 100 101 104 112 108 110 117 129 139 114 113 120 104 95 83 82 84 92 83 91 78 84 84 81 86 98 88 97 85 86 86 79 77 71 71 73 70 74 72 104 99 97 85 92 94 91 89 78 84 92 95 97 109 107 92 96 97 104 106 110 115 113 109 104 112 116 130 123 106 110 120 135 117 120 122 126 113 108 95 93 94 103 81 85 81 90 86 89 86 85 87 103 93 82 81 84 76 77 74 74 70 75 77 106 105 93 89 96 97 90 86 80 81 88 93 95 111 114 94 98 94 100 102 105 115 118 113 110 122 124 133 140 124 131 136 143 142 130 129 124 121 124 116 112 101 89 85 92 78 78 83 81 81 78 79 84 95 86 84 79 77 77 82 75 71 76 77 120 110 109 96 100 89 90 99 90 87 86 87 97 96 96 99 102 105 95 105 105 114 113 117 118 115 135 146 130 79 44 31 28 28 29 48 80 119 132 119 114 107 101 100 96 80 78 82 86 81 82 87 84 89 86 78 82 78 91 87 81 75 78 78 104 108 105 113 112 97 94 105 100 88 87 89 97 97 104 101 99 100 105 104 113 113 118 116 108 116 124 51 24 23 22 21 20 17 19 20 16 17 58 119 137 106 94 103 91 82 86 93 95 95 87 83 92 97 91 90 84 84 93 99 87 82 77 90 119 103 112 115 107 95 91 99 108 95 95 107 97 98 112 107 100 101 101 102 124 123 124 131 130 97 28 22 24 29 21 18 18 18 16 17 18 15 16 23 118 129 125 114 104 94 97 101 102 107 105 102 119 110 89 102 104 94 97 94 88 85 90 84 117 114 100 111 111 110 100 115 114 95 107 120 113 115 118 100 105 100 100 115 122 119 126 141 104 26 22 21 24 26 20 20 16 19 19 18 16 17 17 17 19 125 142 138 122 112 104 102 101 99 102 118 123 119 94 101 108 98 88 93 100 97 100 93 124 137 130 129 129 121 114 118 98 93 118 122 117 124 125 118 116 107 111 120 127 134 140 140 27 19 21 31 57 56 39 32 23 20 16 15 16 18 16 15 17 21 139 147 131 113 103 116 112 103 112 120 116 100 103 115 102 105 94 100 102 102 104 96 123 140 151 139 120 132 132 122 110 110 119 120 127 137 134 125 119 118 118 138 138 147 147 65 23 62 117 148 164 154 117 83 72 47 31 23 19 19 18 16 17 18 36 147 136 126 116 130 133 134 128 126 119 112 111 116 93 112 105 104 113 107 124 110 134 137 138 135 117 123 133 149 135 131 137 134 135 137 127 129 119 135 132 144 146 144 124 25 48 124 219 226 232 237 222 180 145 83 54 31 26 22 20 16 18 18 19 114 144 123 115 121 120 133 136 139 126 121 111 112 108 98 106 98 104 108 120 121 150 134 146 131 134 133 142 155 146 151 139 144 135 151 148 141 144 136 129 127 150 147 48 25 96 210 235 243 254 250 242 223 189 118 64 41 34 29 20 15 17 18 18 31 145 133 108 105 114 130 125 139 133 117 120 124 127 104 112 118 124 122 128 108 151 150 178 139 160 174 188 164 161 159 154 159 148 148 155 151 147 145 136 136 136 94 19 39 107 191 226 232 234 236 233 213 155 102 66 52 35 28 24 15 19 18 17 16 139 115 92 95 119 125 132 141 136 116 115 120 132 131 137 136 141 131 127 110 146 152 167 143 152 185 183 188 179 170 182 185 166 181 161 152 155 148 144 157 145 42 19 41 120 180 203 201 201 212 216 189 131 97 76 66 50 36 27 21 18 19 15 15 68 66 85 81 83 85 118 99 142 131 123 123 124 127 142 142 142 138 132 117 117 133 135 118 121 153 148 186 202 176 131 208 203 195 163 188 156 152 179 191 73 22 19 65 128 175 202 204 193 208 225 208 155 138 118 87 68 43 27 22 17 17 17 15 28 60 74 70 66 70 112 82 109 118 137 144 144 141 139 135 145 144 135 107 115 84 73 111 97 111 147 176 147 115 113 141 197 192 189 202 199 209 215 209 47 20 17 68 137 186 196 203 211 214 214 179 175 145 129 104 71 45 31 20 18 18 14 17 19 45 48 61 62 66 65 82 84 107 141 142 146 141 140 131 148 138 112 98 88 76 68 83 97 82 101 108 109 97 78 92 71 123 205 198 208 209 216 188 32 21 20 66 129 99 97 178 196 162 61 51 65 77 73 60 46 43 30 21 16 16 19 17 19 38 42 56 67 62 58 69 62 76 109 145 142 142 142 141 136 111 83 83 69 70 71 93 87 82 98 80 75 66 60 57 67 67 75 169 185 168 167 127 28 22 19 36 43 71 52 88 156 66 23 48 82 49 24 21 27 34 31 22 15 19 20 18 17 37 36 41 39 54 57 58 44 72 85 145 136 134 138 137 120 111 96 78 66 75 72 88 80 84 75 70 70 58 55 54 57 70 64 177 178 139 141 115 26 21 19 44 42 51 26 59 149 38 38 102 43 25 31 54 72 46 31 23 17 16 18 19 16 35 33 36 38 44 42 56 34 46 69 151 131 120 122 108 98 94 90 70 71 73 75 87 82 93 78 74 73 57 49 52 55 63 124 132 80 61 83 123 24 21 17 90 90 75 52 90 151 42 54 84 70 57 76 127 113 53 27 21 18 18 18 18 16 34 35 34 36 39 39 41 43 48 72 138 132 109 104 103 90 94 84 72 76 68 76 80 78 76 69 72 59 49 52 44 45 49 56 73 59 66 53 49 24 21 19 130 198 191 180 166 158 60 110 196 220 221 191 129 81 43 28 19 19 19 14 16 16 30 34 34 43 52 46 40 36 40 55 108 129 112 93 95 99 86 84 80 74 54 79 76 83 72 57 62 60 51 53 47 41 48 47 39 50 57 48 29 27 21 20 87 180 208 208 188 173 68 114 195 208 212 163 92 63 41 28 21 19 18 15 17 19 45 66 57 57 59 52 55 42 39 52 62 83 91 87 90 103 95 84 83 41 33 69 68 59 66 52 64 61 56 53 44 43 43 44 36 46 47 40 21 21 20 20 60 169 195 162 163 156 75 87 164 187 180 137 77 55 33 29 22 19 18 17 17 16 24 45 47 79 85 72 79 85 101 98 107 118 123 115 96 75 80 102 104 38 34 69 67 57 62 50 59 69 58 57 48 48 49 45 48 47 45 37 21 20 21 17 40 120 163 125 179 159 69 62 189 156 143 90 58 43 31 30 24 17 18 17 19 18 20 30 33 40 40 38 34 37 37 52 69 77 73 65 54 51 46 59 53 35 33 40 71 63 57 58 58 55 59 63 53 55 50 47 45 50 46 38 22 19 18 18 26 79 120 182 90 33 26 37 154 129 99 67 50 37 33 33 23 18 18 15 19 18 17 30 33 35 36 33 36 30 43 41 55 54 54 58 59 49 51 48 49 35 36 35 73 65 61 60 53 54 55 60 50 50 52 54 48 49 49 41 21 20 21 18 20 69 84 151 196 59 53 70 71 67 80 66 52 41 34 30 23 19 16 17 19 19 18 36 40 43 39 38 38 35 33 37 43 46 48 54 60 55 66 59 49 34 36 39 71 65 60 53 56 55 54 56 54 51 53 54 50 47 41 40 23 21 22 20 18 57 95 58 64 63 41 37 51 90 87 67 55 41 32 26 19 18 19 16 14 18 19 32 38 41 40 44 43 39 44 48 64 66 68 66 62 54 39 40 38 37 32 46 66 62 63 59 59 58 54 45 45 46 48 43 44 48 48 50 24 21 23 18 17 25 82 155 133 73 58 60 82 87 79 59 43 41 30 26 17 19 20 19 17 16 19 25 42 44 49 48 44 48 52 49 63 60 60 50 36 35 43 54 44 34 32 40 46 58 57 52 52 49 49 46 48 45 46 45 45 47 47 50 24 22 19 19 18 16 28 91 146 135 100 85 83 76 60 45 39 38 29 25 20 20 19 18 17 17 18 23 46 42 54 58 56 47 43 46 46 40 33 33 35 39 49 65 45 33 32 31 32 49 59 56 55 50 49 48 44 47 60 59 58 66 66 68 28 22 19 20 20 15 18 31 141 206 154 94 75 61 44 37 39 30 28 25 19 20 19 16 18 18 17 23 55 57 54 61 49 46 49 48 55 54 61 58 55 52 55 66 59 28 31 27 30 27 58 54 55 51 52 43 49 48 52 52 54 59 63 62 37 20 21 19 21 19 18 17 34 84 75 60 46 40 39 35 28 28 29 29 19 18 18 18 19 19 17 22 47 52 47 56 54 50 54 50 54 53 57 49 45 45 56 61 42 29 29 35 30 26 39 57 56 53 45 40 46 45 55 51 49 58 68 73 58 21 21 19 21 19 17 17 16 21 29 34 32 31 27 31 28 28 33 30 21 17 19 18 21 21 19 21 39 40 36 38 39 34 35 31 40 40 35 34 29 43 46 62 55 28 26 29 28 32 35 57 66 66 62 62 63 63 66 69 78 77 80 76 72 21 19 20 19 20 18 16 14 18 40 32 26 30 32 32 29 32 38 34 23 19 19 18 20 19 16 21 35 42 40 41 41 40 36 34 34 32 29 29 30 32 42 41 51 30 33 29 27 28 29 51 55 56 61 61 66 68 73 74 74 81 77 76 71 42 20 22 19 19 17 15 14 18 55 52 41 35 33 35 39 42 43 32 19 20 19 18 19 18 20 20 33 40 41 48 42 36 35 45 51 42 34 41 43 49 47 42 52 53 57 55 44 44 59 62 64 67 68 68 69 70 75 75 77 85 75 75 71 55 21 20 20 20 17 18 18 16 38 71 60 50 38 39 47 55 57 40 22 20 20 19 17 18 20 19 36 55 62 71 66 68 67 75 89 62 65 71 89 83 64 55 56 60 64 64 65 65 64 67 71 51 52 59 45 44 70 74 71 71 78 80 43 51 22 21 22 20 18 19 18 18 28 71 72 66 52 50 60 69 69 55 28 21 22 19 20 24 17 17 19 23 22 22 24 41 72 49 53 77 77 61 55 47 42 49 35 64 67 67 69 69 68 73 53 53 50 31 35 42 36 34 53 40 47 31 39 30 22 22 21 17 20 20 22 36 53 65 77 75 68 69 74 79 81 68 37 20 22 21 22 24 18 19 16 22 22 27 26 31 25 22 22 37 78 63 58 44 50 46 36 62 68 69 69 64 72 50 60 52 39 42 40 51 35 39 38 40 40 35 33 29 24 23 21 18 22 34 54 74 112 87 95 80 85 92 104 106 108 96 48 24 20 20 23 23 18 19 16 20 28 25 29 40 47 46 45 62 87 76 35 37 57 55 34 42 60 69 56 52 41 52 53 48 38 46 42 43 38 41 38 38 44 36 30 22 21 23 22 22 49 74 87 114 137 132 127 115 118 138 137 128 117 98 48 25 18 21 23 24 18 17 17 17 22 30 48 82 108 117 95 61 56 40 51 41 44 38 41 51 50 47 46 47 47 48 49 49 55 58 57 47 39 42 42 35 42 35 26 21 23 22 21 36 88 123 145 153 158 161 148 140 147 157 157 141 115 84 49 26 22 23 22 21 18 20 16 19 16 22 25 28 109 93 68 51 50 43 44 47 46 49 50 50 51 49 42 50 54 44 52 40 53 61 47 44 38 42 45 37 42 38 27 22 22 21 28 59 137 144 160 170 171 174 168 154 157 168 163 151 123 87 61 29 22 21 18 18 19 18 16 19 16 19 28 31 58 83 100 98 92 87 76 64 72 68 53 50 53 50 54 42 58 51 60 52 63 55 45 48 38 43 44 42 42 35 26 22 23 26 35 88 155 167 176 176 173 171 173 160 162 169 159 147 127 86 48 22 22 22 17 19 18 18 18 19 19 17 23 27 34 50 49 64 97 42 56 69 55 67 47 48 52 48 50 42 53 76 78 67 62 58 51 43 44 43 50 48 37 23 22 21 27 33 40 111 163 174 181 179 175 172 171 165 168 162 152 137 119 82 35 28 25 19 19 17 20 23 24 20 18 18 13 15 22 38 69 92 118 114 114 107 112 107 93 45 44 48 42 39 38 43 72 85 80 70 63 47 40 42 47 32 24 24 22 21 34 56 63 159 166 175 180 176 171 172 175 169 167 163 155 138 121 82 36 27 21 18 20 24 31 33 34 33 22 19 14 15 16 16 22 24 30 68 61 49 93 110 84 49 45 47 40 43 39 36 32 35 71 71 60 52 51 49 31 25 25 22 21 25 59 119 140 163 171 174 175 175 171 177 177 171 167 165 159 142 116 82 30 23 20 24 40 31 38 61 53 46 27 20 15 15 17 16 15 21 24 22 38 39 38 52 38 43 40 42 46 44 39 33 37 34 37 42 55 77 66 36 21 20 20 19 21 26 79 138 174 177 177 166 160 155 166 179 182 178 172 170 167 151 110 65 34 29 23 24 52 68 37 20 18 17 12 13 13 13 17 14 13 16 23 25 21 20 63 108 84 43 38 40 37 38 37 35 30 30 31 31 34 61 60 21 20 22 22 16 22 24 54 152 170 178 166 145 136 153 180 184 185 184 179 175 169 146 126 62 37 23 40 31 20 15 14 14 13 13 13 11 13 13 14 14 14 12 18 20 19 24 23 22 88 42 39 35 38 40 36 47 47 49 55 72 76 49 22 17 19 20 20 18 24 27 26 54 125 170 164 108 140 174 181 186 188 186 182 169 164 156 70 32 25 19 18 13 13 13 13 12 12 12 13 11 12 11 12 11 12 12 19 23 23 19 20 25 27 41 42 36 40 42 44 37 37 37 37 36 33 19 18 16 18 20 15 21 27 37 28 34 32 42 63 68 134 184 184 182 185 187 180 159 153 64 25 21 16 16 14 13 13 9 9 12 13 11 13 12 12 11 12 12 11 13 16 20 24 28 26 25 25 36 32 38 38 52 33 26 38 26 32 27 19 16 17 17 15 15 17 23 35 40 37 38 35 28 27 24 28 45 65 90 129 149 148 106 40 24 21 19 13 15 13 11 10 10 12 13 14 14 13 11 12 11 11 13 10 12 16 19 28 26 26 25 26 27 37 35 37 37 47 39 43 50 38 32 15 17 18 18 17 14 21 32 36 33 33 35 39 29 35 28 31 31 33 32 30 27 25 21 21 20 19 20 11 11 12 10 13 17 17 13 16 14 13 10 12 13 12 12 11 12 16 16 19 18 19 23 31 26 31 35 38 44 48 46 48 52 58 43 16 15 15 15 13 16 23 33 30 36 30 33 31 31 34 38 36 35 35 28 31 24 20 21 20 16 16 12 11 12 12 12 14 18 15 14 17 14 12 13 12 11 12 15 12 13 16 17 20 23 20 20 22 29 26 28 30 29 33 28 29 29 29 23 16 15 14 17 15 19 21 28 27 32 28 28 24 28 30 35 32 31 32 29 25 18 19 21 19 14 12 10 11 12 12 15 16 20 16 14 17 26 21 16 16 15 16 18 13 9 11 13 15 28 26 26 24 28 23 28 25 26 27 27 27 25 26 21 15 16 16 14 16 18 21 26 25 26 25 23 22 26 31 35 31 29 27 22 19 20 20 17 15 12 13 12 12 14 15 15 15 14 18 18 23 21 21 18 19 16 15 12 11 8 8 9 14 29 36 38 17 27 26 32 27 27 26 25 32 27 22 19 17 15 15 14 18 17 21 21 25 23 24 21 16 23 22 25 24 25 21 17 19 18 17 15 12 11 11 10 11 11 14 12 14 13 19 19 23 19 20 20 21 19 12 8 9 12 10 10 12 18 23 28 20 26 29 52 48 42 38 46 49 42 20 15 14 19 18 18 19 16 18 17 22 20 21 18 18 20 19 21 20 21 16 15 17 20 16 14 11 11 12 11 11 11 14 9 11 16 18 21 21 23 19 18 18 13 10 8 7 10 12 8 12 13 24 30 21 28 52 57 60 57 55 50 58 45 19 15 15 18 16 17 18 16 15 19 20 18 21 19 20 18 17 17 17 17 17 17 21 17 16 14 13 13 12 11 9 11 12 9 11 15 18 20 20 21 16 11 7 8 10 5 8 8 12 10 10 11 29 31 35 38 56 60 58 56 55 60 54 49 16 14 14 16 15 15 14 18 15 14 20 19 20 15 19 19 19 15 17 16 19 17 16 17 14 14 12 13 13 14 12 11 11 10 15 15 20 20 18 16 10 7 8 8 9 8 8 5 13 10 9 11 22 37 40 46 46 48 47 45 47 48 38 22 18 15 20 21 13 14 18 19 18 17 18 18 15 16 19 17 16 16 18 19 17 17 15 17 13 13 14 12 13 11 12 10 10 10 14 20 15 15 15 11 10 9 7 7 7 10 9 7 12 10 8 10 16 29 28 30 25 28 29 28 27 23 18 15 16 18 14 18 15 17 16 19 19 16 14 16 15 17 18 16 18 13 13 14 16 16 16 14 12 12 14 12 11 11 12 10 9 11 15 13 12 11 7 10 7 8 5 4 4 4 6 5 10 5 7 8 12 20 19 29 28 26 25 28 27 21 14 19 17 15 16 17 15 18 15 15 17 17 17 16 18 15 16 14 13 12 13 12 15 16 18 14 11 13 12 11 8 11 10 10 10 12 16 13 8 7 4 9 5 4 4 3 3 3 4 5 6 5 8 11 14 20 20 25 27 29 26 25 22 17 15 17 18 18 19 17 14 14 18 18 18 15 15 16 16 14 14 12 13 12 12 13 13 15 14 11 12 13 12 11 10 8 7 6 7 13 16 6 3 3 7 7 6 6 9 6 3 4 8 4 7 6 5 8 13 21 21 29 27 30 27 16 14 17 19 16 17 18 17 18 17 14 16 17 19 17 15 16 15 15 15 11 11 11 14 17 16 12 11 11 12 13 11 12 11 10 6 8 7 13 12 6 4 4 8 9 5 7 12 11 6 5 7 6 4 5 6 10 10 15 21 29 29 30 18 15 17 19 20 14 16 14 18 19 18 18 16 17 18 16 16 19 14 17 18 13 13 13 14 15 12 11 11 12 12 12 12 8 9 10 7 7 11 12 6 5 1 0 8 8 5 2 6 8 7 3 3 4 5 5 4 6 10 13 21 30 28 20 13 16 15 17 18 17 18 14 14 15 14 16 18 18 17 15 18 17 17 15 16 14 15 17 14 13 12 13 12 12 11 12 10 9 12 10 6 7 12 7 5 6 3 3 7 9 5 5 4 3 3 5 3 2 3 3 4 7 10 13 23 31 31 18 15 19 19 17 17 16 17 16 18 19 17 17 15 16 18 14 16 18 15 14 15 13 17 14 11 13 13 13 15 14 11 11 9 11 11 9 8 10 11 5 7 5 2 3 5 6 8 5 5 2 2 3 2 1 0 3 8 11 12 14 20 31 25 18 15 17 18 17 19 23 20 18 20 20 18 17 14 18 17 15 14 16 14 15 13 14 17 15 13 14 13 12 13 13 12 11 12 10 8 8 7 12 8 5 6 7 9 9 7 8 5 6 5 3 3 4 5 3 0 2 10 13 11 13 19 31 21 19 16 17 19 21 26 27 30 23 18 19 26 26 17 15 15 14 16 18 21 21 18 16 15 14 16 13 11 11 12 11 9 10 12 12 9 7 7 10 9 5 7 6 10 11 13 12 10 9 7 7 5 4 3 2 3 7 11 9 6 9 16 24 20 16 15 16 20 20 27 23 22 20 29 22 21 20 18 17 17 17 18 16 17 20 19 15 18 17 12 9 9 10 10 13 12 13 13 12 12 10 8 8 6 6 9 10 11 10 11 11 8 10 8 8 9 6 4 4 4 8 10 8 9 10 14 21 20 19 18 16 20 25 27 28 24 45 26 26 31 26 28 28 19 14 19 22 18 15 13 13 14 11 9 8 9 11 13 13 13 13 13 12 12 11 9 6 7 7 8 9 8 9 12 11 8 10 10 12 10 7 5 3 3 6 7 10 12 11 13 14 18 19 17 17 21 22 28 34 49 22 21 33 34 25 36 22 35 82 93 92 73 54 28 12 12 10 7 8 10 11 13 14 12 14 12 12 11 11 13 11 12 8 10 10 11 10 11 12 10 10 8 6 9 7 9 7 9 9 9 10 10 11 14 15 20 19 17 17 20 17 29 33 23 20 44 20 32 28 19 34 81 91 96 94 89 75 64 55 43 26 14 12 12 12 12 12 11 12 12 11 10 11 12 11 12 11 12 11 12 12 13 15 13 12 11 8 9 9 9 7 9 8 10 10 10 13 12 17 16 15 15 15 15 17 25 24 23 28 20 30 21 21 24 39 76 78 92 90 90 81 80 66 64 67 59 27 9 8 11 11 9 12 12 11 11 11 9 12 12 10 12 13 13 12 14 15 14 13 12 12 10 10 8 9 11 9 10 13 11 10 12 13 17 19 18 18 16 14 21 19 23 20 19 21 22 20 23 42 65 66 71 70 79 86 81 74 68 65 59 43 27 24 9 9 10 11 11 11 11 11 11 12 13 11 11 11 14 13 13 14 13 14 11 11 12 12 9 8 9 9 12 12 10 10 11 14 17 17 19 17 18 18 15 18 23 19 20 21 21 20 20 34 53 53 55 61 66 71 71 74 70 67 66 64 67 61 46 30 10 9 8 10 10 12 10 12 12 12 12 11 12 11 12 13 12 12 9 8 13 11 10 8 5 7 10 9 8 10 9 13 16 15 19 17 19 16 19 16 17 16 20 16 16 17 20 20 31 27 31 42 54 61 65 66 69 69 68 67 67 72 79 47 24 17 9 10 11 12 12 12 19 27 31 26 23 16 16 14 12 11 11 12 11 10 11 10 5 5 6 7 7 11 8 13 15 15 14 17 17 12 16 18 16 18 15 18 17 16 18 15 20 20 21 38 50 53 59 62 62 57 60 59 38 50 77 82 49 24 28 27 36 33 33 33 21 21 29 22 19 21 23 21 13 6 9 13 13 12 9 10 9 9 11 10 10 12 7 14 14 16 14 17 14 13 15 16 16 18 18 19 19 14 18 18 16 24 38 34 44 49 54 57 57 53 58 59 40 21 31 60 63 40 27 26 28 39 28 23 29 24 23 25 25 20 19 17 17 10 6 10 14 13 11 8 9 10 12 12 9 10 7 16 16 15 13 15 16 15 17 18 16 18 19 18 17 17 19 44 52 57 62 34 34 39 40 47 45 47 33 46 68 56 18 19 34 38 33 29 24 19 26 22 26 22 21 25 32 24 19 18 15 13 10 11 13 13 12 11 11 8 13 12 10 12 10 16 14 14 14 17 17 14 17 19 16 16 17 16 18 26 55 43 33 69 66 46 25 30 35 37 47 60 47 22 45 66 59 19 18 24 33 34 26 22 18 27 24 28 21 22 18 28 21 14 17 16 11 10 15 15 13 13 11 11 10 9 10 12 8 14 15 15 18 19 16 15 19 18 17 16 16 18 17 34 27 31 60 62 70 70 43 22 29 35 35 45 63 63 21 39 59 48 18 19 21 30 26 21 17 22 22 26 27 21 25 19 20 15 18 17 13 12 15 15 17 13 13 11 12 12 11 12 11 15 13 16 18 19 17 17 18 18 16 16 18 16 17 33 29 59 48 42 73 61 52 34 22 30 25 22 35 61 59 20 26 36 45 19 17 18 20 17 20 22 20 21 28 24 23 22 18 16 18 15 12 13 15 16 18 15 15 13 12 13 12 13 12 16 14 14 15 16 15 14 18 17 19 18 17 19 19 29 41 41 28 55 60 68 47 37 25 20 27 27 23 32 51 35 18 22 31 39 20 17 14 18 18 20 14 16 17 21 19 20 17 16 16 17 14 14 16 15 13 14 12 14 13 13 14 13 11 16 14 13 14 16 16 16 19 19 19 18 17 16 18 25 31 27 30 39 62 48 34 28 25 21 18 24 27 21 23 26 23 17 19 31 28 16 17 18 16 17 16 14 15 14 15 14 15 15 16 15 13 13 14 15 12 12 14 13 12 14 13 14 11 15 14 14 15 17 19 17 19 18 16 17 19 18 19 20 24 28 38 51 44 27 21 19 17 17 16 19 17 16 16 17 19 20 17 19 19 16 17 14 18 19 16 16 19 15 15 17 20 19 16 16 15 14 18 15 13 12 11 12 11 13 15 14 13 13 14 15 14 14 17 17 18 19 18 16 19 18 18 19 19 27 35 42 26 18 16 17 15 14 17 16 15 18 15 15 17 19 16 19 13 13 14 17 15 16 15 16 18 18 18 19 17 19 16 14 14 14 16 17 13 12 12 10 11 14 15 14 13 13 13 13 15 15 16 17 18 19 16 16 19 18 16 15 15 21 30 25 19 17 17 18 16 14 18 17 17 18 15 17 17 18 15 16 13 12 13 13 13 13 14 15 17 16 19 17 18 19 17 16 15 13 13 13 13 12 12 9 12 11 13 15 12 14 15 15 15 13 16 16 17 18 16 15 18 16 15 15 14 18 26 21 18 19 17 19 18 16 17 18 16 17 16 16 17 19 14 16 14 13 13 14 14 13 13 13 15 14 17 16 18 17 14 19 15 13 12 13 11 9 10 12 11 11 11 13 10 13 13 14 14 17 19 15 16 19 15 17 18 17 14 15 16 19 20 19 18 18 17 18 17 18 16 18 17 18 16 17 19 18 14 17 16 17 14 14 14 13 13 13 15 14 15 18 18 20 14 15 17 13 11 10 9 9 11 10 10 8 9 11 11 14 14 17 18 18 17 15 18 17 14 13 16 15 14 13 13 18 16 13 18 14 14 18 15 17 16 17 17 17 16 16 14 15 15 15 14 12 13 11 13 12 12 13 13 13 14 17 20 17 18 15 15 15 13 12 10 6 10 11 9 5 7 10 9 16 18 18 17 14 15 11 13 12 11 10 11 11 11 10 11 16 12 12 13 12 11 14 14 14 12 12 11 11 11 12 13 11 10 12 13 12 12 12 12 12 10 12 13 13 13 11 13 15 17 14 13 14 13 7 5 4 4 6 7 2 3 4 3 17 15 12 12 12 12 9 9 7 4 3 5 7 7 8 9 11 10 6 10 9 10 8 13 12 11 10 8 8 6 9 9 9 10 10 12 13 11 11 10 11 12 7 10 10 11 10 12 10 14 11 10 11 8 8 5 3 1 2 2 1 1 2 1 